<?xml version="1.0" encoding="UTF-8" standalone="no" ?>
<!DOCTYPE svg PUBLIC "-//W3C//DTD SVG 1.1//EN" "http://www.w3.org/Graphics/SVG/1.1/DTD/svg11.dtd">
<svg xmlns="http://www.w3.org/2000/svg" xmlns:xlink="http://www.w3.org/1999/xlink" version="1.1" width="1080" height="1080" viewBox="0 0 1080 1080" xml:space="preserve">
<desc>Created with Fabric.js 5.2.4</desc>
<defs>
</defs>
<g transform="matrix(1 0 0 1 540 540)" id="294ca8e4-c9ed-4905-86b9-166e1465911c"  >
</g>
<g transform="matrix(1 0 0 1 540 540)" id="8c976d7c-d38f-44fb-a65c-b491419772da"  >
<rect style="stroke: none; stroke-width: 1; stroke-dasharray: none; stroke-linecap: butt; stroke-dashoffset: 0; stroke-linejoin: miter; stroke-miterlimit: 4; fill: rgb(255,255,255); fill-rule: nonzero; opacity: 1; visibility: hidden;" vector-effect="non-scaling-stroke"  x="-540" y="-540" rx="0" ry="0" width="1080" height="1080" />
</g>
<g transform="matrix(8.71 0 0 8.71 847.45 540.04)"  >
<path style="stroke: none; stroke-width: 1; stroke-dasharray: none; stroke-linecap: butt; stroke-dashoffset: 0; stroke-linejoin: miter; stroke-miterlimit: 4; fill: rgb(217,217,217); fill-rule: nonzero; opacity: 1;" vector-effect="non-scaling-stroke"  transform=" translate(-162.66, -101.6)" d="M 176.209 153.69 L 173.199 98.7537 L 149.107 49.5017 L 152.117 104.438 L 176.209 153.69 Z" stroke-linecap="round" />
</g>
<g transform="matrix(8.71 0 0 8.71 232.57 540.04)"  >
<path style="stroke: none; stroke-width: 1; stroke-dasharray: none; stroke-linecap: butt; stroke-dashoffset: 0; stroke-linejoin: miter; stroke-miterlimit: 4; fill: rgb(217,217,217); fill-rule: nonzero; opacity: 1;" vector-effect="non-scaling-stroke"  transform=" translate(-92.09, -101.6)" d="M 105.643 49.5018 L 102.633 104.438 L 78.5409 153.69 L 81.5513 98.7537 L 105.643 49.5018 Z" stroke-linecap="round" />
</g>
<g transform="matrix(8.71 0 0 8.71 536.51 497.27)"  >
<path style="stroke: none; stroke-width: 1; stroke-dasharray: none; stroke-linecap: butt; stroke-dashoffset: 0; stroke-linejoin: miter; stroke-miterlimit: 4; fill: rgb(217,217,217); fill-rule: nonzero; opacity: 1;" vector-effect="non-scaling-stroke"  transform=" translate(-126.97, -96.69)" d="M 126.973 142.112 L 137.013 51.2779 L 116.933 51.2779 L 126.973 142.112 Z" stroke-linecap="round" />
</g>
</svg>
